PathFileType	4	(X/Y/Z)	C:\Git\research_data\Projects\squatting_fais\c3dfiles\036\SJ_pre2\markers_experimental.trc
DataRate	CameraRate	NumFrames	NumMarkers	Units	OrigDataRate	OrigDataStartFrame	OrigNumFrames
200.000000	200.000000	4	62	mm	200.000000	1257	1677
Frame#	Time	FHD			LBHD			RBHD			C7			T10			CLAV			LSHO			LUUPA			LMUPA			LDUPA			LLEP			LMEP			LRAD			LUL			LRFIN			RSHO			RUPA1			RMUPA			RDUPA			RLEP			RMEP			RRAD			RUL			RUFIN			LASI			RASI			USACR			LSACR			RSACR			LTHI1			LTHI2			LTHI3			LTHI4			LLFC			LMFC			LTIB1			LTIB2			LTIB3			LTIB4			LLMAL			LMMAL			LHEE			LMT1			LMT2			LMT5			RTHI			RTHI2			RTHI3			RTHI4			RLFC			RMFC			RTIB1			RTIB2			RTIB3			RTIB4			RLMAL			RMMAL			RHEE			RMT1			RMT2			RMT5			*61			
		X1	Y1	Z1	X2	Y2	Z2	X3	Y3	Z3	X4	Y4	Z4	X5	Y5	Z5	X6	Y6	Z6	X7	Y7	Z7	X8	Y8	Z8	X9	Y9	Z9	X10	Y10	Z10	X11	Y11	Z11	X12	Y12	Z12	X13	Y13	Z13	X14	Y14	Z14	X15	Y15	Z15	X16	Y16	Z16	X17	Y17	Z17	X18	Y18	Z18	X19	Y19	Z19	X20	Y20	Z20	X21	Y21	Z21	X22	Y22	Z22	X23	Y23	Z23	X24	Y24	Z24	X25	Y25	Z25	X26	Y26	Z26	X27	Y27	Z27	X28	Y28	Z28	X29	Y29	Z29	X30	Y30	Z30	X31	Y31	Z31	X32	Y32	Z32	X33	Y33	Z33	X34	Y34	Z34	X35	Y35	Z35	X36	Y36	Z36	X37	Y37	Z37	X38	Y38	Z38	X39	Y39	Z39	X40	Y40	Z40	X41	Y41	Z41	X42	Y42	Z42	X43	Y43	Z43	X44	Y44	Z44	X45	Y45	Z45	X46	Y46	Z46	X47	Y47	Z47	X48	Y48	Z48	X49	Y49	Z49	X50	Y50	Z50	X51	Y51	Z51	X52	Y52	Z52	X53	Y53	Z53	X54	Y54	Z54	X55	Y55	Z55	X56	Y56	Z56	X57	Y57	Z57	X58	Y58	Z58	X59	Y59	Z59	X60	Y60	Z60	X61	Y61	Z61	X62	Y62	Z62	

1258	6.285	-168.2398071289063	1547.821411132813	-956.144470214844	-320.3523254394532	1468.705688476563	-1025.1123046875	-282.6256103515626	1498.728149414063	-880.8277587890627	-357.1381225585938	1367.579956054688	-969.8582153320315	-366.6393737792969	1061.850341796875	-957.3706665039065	-206.8156890869141	1315.286499023438	-952.9236450195315	-254.1272277832032	1351.470825195313	-1099.877197265625	-298.1304626464844	1222.041381835938	-1230.725708007813	-263.0378723144532	1186.490234375	-1229.853759765625	-305.4660034179688	1161.289184570313	-1264.723388671875	-307.0795593261719	1105.694946289063	-1278.57763671875	-366.3220825195313	1095.521362304688	-1246.4912109375	-196.5365295410157	904.0643310546877	-1221.094360351563	-232.8256072998047	921.3489990234377	-1163.769287109375	-202.7752075195313	867.3975219726565	-1132.632568359375	-266.5925598144532	1354.796875	-806.2659912109377	-308.2530517578126	1242.368530273438	-685.4966430664064	-267.4332885742188	1214.78955078125	-682.0706176757814	-302.6218566894532	1185.2490234375	-645.2348022460939	-292.2142333984376	1116.967895507813	-620.1060791015626	-351.7211303710938	1086.261108398438	-658.4107666015626	-218.5147094726563	935.181091308594	-740.0789794921876	-172.726806640625	924.499206542969	-692.3468627929689	-193.3266143798829	890.1413574218752	-781.1069946289065	-184.2277984619141	874.1987915039065	-1080.541137695313	-191.7451324462891	883.6873168945315	-811.2416992187502	-371.6016540527344	979.8453369140627	-959.0976562500002	-391.671600341797	953.251647949219	-984.4461669921877	-393.6290588378907	957.930847167969	-929.8391723632815	-280.5254516601563	750.7592773437501	-1159.31005859375	-261.4681091308594	669.4768066406251	-1163.486938476563	-217.1669006347657	667.0945434570314	-1146.244750976563	-296.6767578125001	621.7316284179689	-1163.695068359375	-350.1176452636719	471.3954467773439	-1153.382202148438	-342.6713867187501	421.3246154785157	-1007.372924804688	-281.1830139160157	287.0108947753907	-1095.357299804688	-301.2288818359376	252.0699768066407	-1173.563598632813	-278.6203308105469	244.8718261718751	-1133.948608398438	-280.3759155273438	162.0831451416016	-1112.95947265625	-327.5833740234376	82.77548980712892	-1174.444580078125	-307.7402954101563	83.46005249023439	-1092.300415039063	-378.4064941406251	55.30635833740236	-1140.995483398438	-188.7589416503907	54.44065475463869	-1106.91455078125	-175.5834197998047	54.02071762084962	-1153.760620117188	-214.2356414794922	33.42331314086915	-1204.65478515625	-340.5086669921876	714.0491333007814	-744.2863769531251	-306.6867370605469	657.7702026367189	-732.0045776367189	-274.2107849121094	659.3590698242189	-728.5973510742189	-334.9465942382813	580.2730102539064	-738.6671752929689	-333.1167602539063	465.3912963867189	-739.8817138671876	-303.9625244140626	440.9881896972657	-883.8125610351565	-288.4803771972657	308.6473388671876	-762.1671142578126	-357.6750183105469	236.8109283447266	-710.1376342773439	-313.5019531250001	233.259506225586	-726.9619750976564	-302.3239746093751	181.1320037841797	-752.9276733398439	-373.7505187988282	82.61241912841798	-728.9981689453126	-334.7990722656251	85.88758087158205	-802.1961669921877	-413.1650390625001	53.76099395751955	-769.0893554687502	-215.0418548583985	54.07710266113283	-765.2583007812501	-220.3941955566407	57.07413864135744	-715.4696655273439	-262.6496276855469	33.2986068725586	-673.3941040039064	nan	nan	nan	
1259	6.29	-168.3454742431641	1547.93701171875	-956.287536621094	-320.4472045898438	1468.687622070313	-1025.261840820313	-282.8043823242188	1498.796875	-880.9809570312502	-357.2104187011719	1367.615234375	-969.9300537109377	-366.6724548339844	1061.839599609375	-957.5142822265627	-206.9177398681641	1315.312133789063	-952.9622192382815	-254.0313873291016	1351.46435546875	-1099.913452148438	-297.5806274414063	1222.181030273438	-1231.048950195313	-262.7615966796876	1186.472412109375	-1229.91943359375	-305.2626342773438	1161.364135742188	-1264.896118164063	-306.7469787597657	1105.737182617188	-1278.743530273438	-366.2645874023438	1095.701293945313	-1246.918823242188	-196.5163574218751	904.2768554687502	-1221.180053710938	-232.8996582031251	921.4093017578127	-1163.906127929688	-203.0522003173829	867.366638183594	-1132.509033203125	-266.7302856445313	1354.836181640625	-806.369812011719	-308.3489685058594	1242.44384765625	-685.5550537109376	-267.4704895019532	1214.843505859375	-682.1240234375001	-302.8744506835938	1185.24853515625	-645.2872924804689	-292.3924255371094	1117.029907226563	-620.1011962890626	-351.8475036621094	1086.29931640625	-658.3428955078126	-218.7224731445313	935.1940917968752	-740.0197143554689	-173.1622772216797	924.491394042969	-692.1093750000001	-193.4939880371094	890.201110839844	-780.9627075195315	-184.2332458496094	874.2412109375002	-1080.584594726563	-192.1123657226563	883.6221313476565	-811.2023925781252	-371.6423645019532	979.8109130859377	-959.2202758789065	-391.8417358398439	953.262878417969	-984.5173950195315	-393.6847534179689	957.8922119140627	-929.9086914062502	-280.5807800292969	750.7282714843751	-1159.368530273438	-261.4111633300782	669.4467163085939	-1163.554931640625	-217.1294097900391	667.1212768554689	-1146.307983398438	-296.6521301269532	621.7407226562501	-1163.732421875	-350.1184082031251	471.3848266601564	-1153.433471679688	-342.5354003906251	421.2915954589845	-1007.428161621094	-281.1808776855469	287.0191955566407	-1095.349853515625	-301.1038208007813	252.0489807128907	-1173.689697265625	-278.6065673828126	244.8386688232422	-1133.975708007813	-280.4069213867188	162.065185546875	-1112.961669921875	-327.5463256835938	82.74329376220705	-1174.457275390625	-307.7538452148438	83.44715881347658	-1092.297973632813	-378.4307250976563	55.32416152954103	-1140.993408203125	-188.7410736083985	54.46105194091798	-1106.906982421875	-175.6172485351563	54.02255249023439	-1153.778686523438	-214.2406616210938	33.40888214111329	-1204.647583007813	-340.7196960449219	714.0022583007814	-744.4501953125001	-306.8271789550782	657.7637939453126	-732.0847778320314	-274.3132934570313	659.3803100585939	-728.6388549804689	-335.0022888183594	580.2273559570314	-738.7615966796876	-333.0539550781251	465.3924560546876	-739.8903808593751	-303.8249206542969	440.8930053710939	-883.8621215820315	-288.3760070800782	308.6654663085938	-762.0871582031251	-357.5522155761719	236.7878570556641	-710.1596679687501	-313.5033874511719	233.2285766601563	-726.9572753906251	-302.3504943847657	181.1246643066407	-752.9818115234376	-373.6911315917969	82.63055419921876	-729.0184326171876	-334.8046264648438	85.89098358154298	-802.2315063476565	-413.1036682128907	53.7528648376465	-769.1224365234377	-215.0817108154297	54.03400039672853	-765.2761840820314	-219.7503814697266	57.05897903442384	-715.3657836914064	-262.6434631347657	33.31702041625977	-673.4252319335939	nan	nan	nan	
1260	6.295	-168.4071197509766	1548.058715820313	-956.485534667969	-320.6464233398438	1468.680053710938	-1025.393920898438	-283.0790405273438	1498.843383789063	-881.1245117187502	-357.2476806640626	1367.582397460938	-970.094665527344	-366.7167358398438	1061.839721679688	-957.5593261718752	-207.0479888916016	1315.35205078125	-952.9898681640627	-254.2306213378907	1351.4892578125	-1099.981811523438	-297.2332763671876	1222.214477539063	-1231.201049804688	-263.0136413574219	1186.204833984375	-1229.364013671875	-305.1314697265626	1161.4091796875	-1265.038696289063	-306.5403442382813	1105.808349609375	-1278.937866210938	-366.2158813476563	1095.93310546875	-1247.342651367188	-196.6665649414063	904.2192382812502	-1221.291381835938	-232.9401092529297	921.466003417969	-1163.93212890625	-203.1133270263672	867.4335937500002	-1132.570190429688	-266.8686218261719	1354.908447265625	-806.411560058594	-308.6923522949219	1242.33837890625	-685.7442016601564	-267.6974792480469	1214.858032226563	-682.1608276367189	-303.0419006347657	1185.287963867188	-645.2597656250001	-292.5967102050782	1117.0712890625	-620.1527709960939	-352.0918273925782	1086.53564453125	-658.4182128906251	-218.9819793701172	935.1983642578127	-739.9276733398439	-173.56494140625	924.4458007812502	-692.0653686523439	-193.8092651367188	890.125915527344	-780.8383789062502	-184.3014678955078	874.291442871094	-1080.665405273438	-192.4684295654297	883.5041503906252	-811.222106933594	-371.6954956054688	979.7922973632815	-959.2959594726565	-391.9332885742189	953.2576904296877	-984.5629882812502	-393.8160095214845	957.8952636718752	-929.9486083984377	-280.6588745117188	750.7205810546876	-1159.398559570313	-261.4934082031251	669.5003051757814	-1163.572387695313	-217.1683959960938	667.1401367187501	-1146.395629882813	-296.6273193359376	621.7604370117189	-1163.744873046875	-350.1186828613282	471.3646240234376	-1153.47412109375	-342.4413757324219	421.2884216308595	-1007.482482910156	-281.1773681640626	287.0090637207032	-1095.37939453125	-301.2094421386719	252.0605773925782	-1173.603637695313	-278.5186462402344	244.8551177978516	-1133.94677734375	-280.3947448730469	162.0452575683594	-1112.989990234375	-327.5387573242188	82.72913360595705	-1174.4365234375	-307.7689514160157	83.42967987060548	-1092.323486328125	-378.4749450683594	55.32314682006837	-1140.977783203125	-188.8148193359375	54.49350738525392	-1106.911499023438	-175.5891723632813	54.03061294555665	-1153.794555664063	-214.2128448486329	33.4234733581543	-1204.703125	-340.8831787109376	713.9856567382814	-744.6291503906251	-306.9228515625001	657.7781372070314	-732.2228393554689	-274.4440307617188	659.3834838867189	-728.6907348632814	-335.0872192382813	580.1986083984376	-738.8148803710939	-332.9566955566407	465.2973937988282	-739.9083862304689	-303.0968017578126	440.8257141113282	-883.6621093750002	-288.2856445312501	308.6378173828126	-762.1483154296876	-357.5146789550782	236.8127593994141	-710.1873779296876	-313.4116210937501	233.2200164794922	-726.9762573242189	-302.2836914062501	181.0236206054688	-753.0406494140626	-373.6379089355469	82.60760498046876	-729.0488281250001	-334.7666931152344	85.84861755371095	-802.252868652344	-413.1182861328126	53.72688293457033	-769.150817871094	-215.0521850585938	54.03023910522462	-765.2659301757814	-219.9529724121094	57.2484703063965	-715.3345336914064	-262.6207580566407	33.33723449707032	-673.4082641601564	nan	nan	nan	
1261	6.3	-168.5617065429688	1548.141357421875	-956.5960083007815	-320.7109375000001	1468.645141601563	-1025.472778320313	-283.2190856933594	1498.86767578125	-881.3120727539065	-357.3218688964844	1367.562622070313	-970.194763183594	-366.7921447753907	1061.845947265625	-957.6624145507815	-207.1532897949219	1315.3193359375	-953.0474243164065	-254.2433624267579	1351.479736328125	-1100.051635742188	-297.0567932128907	1222.262939453125	-1231.332885742188	-262.7342529296876	1186.20654296875	-1229.4384765625	-304.9475402832032	1161.459716796875	-1265.192504882813	-306.4079589843751	1105.897338867188	-1279.151245117188	-366.1724243164063	1096.133422851563	-1247.734741210938	-196.7322387695313	904.3009033203127	-1221.322875976563	-233.0462036132813	921.5465087890627	-1164.03271484375	-203.0646362304688	867.6358642578127	-1132.725952148438	-266.9675292968751	1354.92578125	-806.4627075195315	-308.9432373046876	1242.368774414063	-685.7854003906251	-267.7827758789063	1214.890014648438	-682.2094116210939	-303.3554382324219	1185.377807617188	-645.2926025390626	-292.8678283691407	1117.161010742188	-620.1378173828126	-352.2648925781251	1086.613403320313	-658.4433593750001	-219.2442932128907	935.1949462890627	-739.8522338867189	-173.9369506835938	924.400085449219	-691.9173583984376	-194.1451721191407	890.150085449219	-780.6558227539065	-184.279037475586	874.2658691406252	-1080.712646484375	-192.5073852539063	883.532897949219	-811.2597656250002	-371.8206787109376	979.7788696289065	-959.3489990234377	-392.0254211425782	953.3004150390627	-984.6492919921877	-393.9397277832032	957.9345703125002	-929.9908447265627	-280.6600646972657	750.7708740234376	-1159.424560546875	-261.4383544921876	669.4168090820314	-1163.629516601563	-217.244613647461	667.1310424804689	-1146.404418945313	-296.6317138671876	621.7405395507814	-1163.813354492188	-350.1015625000001	471.3589782714845	-1153.499389648438	-342.3492736816407	421.2698974609376	-1007.512756347656	-281.1498413085938	286.9813232421876	-1095.3720703125	-301.0320434570313	252.0688171386719	-1173.656616210938	-278.6112976074219	244.8196105957032	-1134.009155273438	-280.3809204101563	162.0714263916016	-1112.990478515625	-327.6307067871094	82.76980590820314	-1174.460815429688	-307.7578430175782	83.4391326904297	-1092.336547851563	-378.4914855957032	55.3137893676758	-1140.989501953125	-188.7829284667969	54.46799087524415	-1106.930297851563	-175.5453643798828	53.98163223266603	-1153.76220703125	-214.1310577392579	33.43191146850587	-1204.663696289063	-341.0512695312501	713.9632568359376	-744.7691650390626	-307.0276184082032	657.7532348632814	-732.3501586914064	-274.5344543457032	659.3814697265626	-728.7434082031251	-335.1902160644532	580.1866455078126	-738.8858032226564	-332.8850097656251	465.2506103515626	-739.9398193359376	-302.8923034667969	440.6935119628907	-883.6485595703127	-288.2829589843751	308.5735168457032	-762.0816650390626	-357.4437255859376	236.7767639160157	-710.1820068359376	-313.4013671875001	233.2147064208985	-727.0037841796876	-302.2066955566407	180.9932403564453	-753.0675048828126	-373.6774597167969	82.62918853759767	-729.0310668945314	-334.7200317382813	85.83472442626955	-802.2818603515627	-413.1485595703126	53.77122497558595	-769.143981933594	-215.0354156494141	54.01772308349611	-765.2956542968751	-219.9598083496094	57.2499351501465	-715.3611450195314	-262.6455993652344	33.37058639526368	-673.3192138671876	nan	nan	nan	
